<?xml version="1.0" encoding="utf-8"?>
<svg fill="#000000" height="800px" width="800px" version="1.1" id="Capa_1" viewBox="0 0 463 463" xmlns="http://www.w3.org/2000/svg">
  <rect y="124.367" width="463" height="262.699" style="stroke: rgb(0, 0, 0); stroke-width: 0px; stroke-linecap: round; fill: rgb(214, 49, 49);" rx="54.87" ry="54.87"/>
  <g transform="matrix(1, 0, 0, 1, -9.662753, -19.73407)">
    <path d="M 250.038 168.335 C 227.973 168.335 210.022 177.098 210.022 187.87 L 210.022 237.254 C 210.022 248.026 227.973 256.789 250.038 256.789 C 272.103 256.789 290.054 248.026 290.054 237.254 L 290.054 187.87 C 290.054 177.099 272.103 168.335 250.038 168.335 Z M 275.054 237.255 C 275.054 243.989 263.832 249.467 250.038 249.467 C 236.244 249.467 225.022 243.989 225.022 237.255 L 225.022 187.87 C 225.022 181.136 236.244 175.658 250.038 175.658 C 263.832 175.658 275.054 181.136 275.054 187.87 L 275.054 237.255 Z" style="fill: rgb(255, 255, 255); stroke-miterlimit: 1; stroke-width: 0px; stroke-dashoffset: -50px; transform-origin: 250.038px 212.562px;"/>
    <path d="M 188.984 168.334 C 184.842 168.334 181.484 169.973 181.484 171.995 L 181.484 237.253 C 181.484 243.987 170.262 249.466 156.468 249.466 C 142.674 249.466 131.452 243.987 131.452 237.253 L 131.452 171.995 C 131.452 169.973 128.094 168.334 123.952 168.334 C 119.81 168.334 116.452 169.973 116.452 171.995 L 116.452 237.253 C 116.452 248.025 134.403 256.788 156.468 256.788 C 178.533 256.788 196.484 248.025 196.484 237.253 L 196.484 171.995 C 196.484 169.973 193.126 168.334 188.984 168.334 Z" style="fill: rgb(255, 255, 255); stroke-miterlimit: 1; stroke-width: 5px; transform-origin: 156.468px 212.561px;" transform="matrix(-1, 0, 0, -1, 0.000006, -0.000013)"/>
    <path d="M 378.566 168.335 L 306.308 168.335 C 302.166 168.335 298.808 169.975 298.808 171.997 C 298.808 174.019 302.166 175.658 306.308 175.658 L 334.937 175.658 L 334.937 253.129 C 334.937 255.151 338.295 256.79 342.437 256.79 C 346.579 256.79 349.937 255.151 349.937 253.129 L 349.937 175.658 L 378.566 175.658 C 382.708 175.658 386.066 174.019 386.066 171.997 C 386.066 169.975 382.709 168.335 378.566 168.335 Z" style="fill: rgb(255, 255, 255); stroke-miterlimit: 1; stroke-width: 5px; transform-origin: 342.437px 212.563px;"/>
  </g>
  <g style="" transform="matrix(1, 0, 0, 0.488177, 4.699116, 173.039734)">
    <path d="M 102.837 183.14 C 101.493 175.414 94.826 169.806 86.984 169.806 C 79.141 169.806 72.474 175.414 71.131 183.14 L 43.466 342.215 C 42.757 346.296 45.489 350.179 49.57 350.889 C 53.652 351.597 57.534 348.866 58.244 344.785 L 64.708 307.615 C 64.906 307.631 65.104 307.645 65.306 307.645 L 108.66 307.645 C 108.862 307.645 109.06 307.631 109.258 307.615 L 115.722 344.785 C 116.356 348.431 119.524 351.001 123.102 351.001 C 123.528 351.001 123.961 350.964 124.396 350.889 C 128.477 350.179 131.209 346.296 130.5 342.215 L 102.837 183.14 Z M 67.312 292.645 L 85.909 185.71 C 86 185.187 86.452 184.807 86.984 184.807 C 87.516 184.807 87.968 185.187 88.059 185.711 L 106.656 292.645 L 67.312 292.645 Z" style="fill: rgb(255, 255, 255); stroke-miterlimit: 1; stroke-width: 5px; transform-box: fill-box; transform-origin: 50% 50%;"/>
    <path d="M 217.048 169.806 C 212.906 169.806 209.548 173.164 209.548 177.306 L 209.548 310.983 C 209.548 324.777 198.326 335.999 184.532 335.999 C 170.738 335.999 159.516 324.777 159.516 310.983 L 159.516 177.306 C 159.516 173.164 156.158 169.806 152.016 169.806 C 147.874 169.806 144.516 173.164 144.516 177.306 L 144.516 310.983 C 144.516 333.048 162.467 350.999 184.532 350.999 C 206.597 350.999 224.548 333.048 224.548 310.983 L 224.548 177.306 C 224.548 173.164 221.19 169.806 217.048 169.806 Z" style="fill: rgb(255, 255, 255); stroke-miterlimit: 1; stroke-width: 5px; transform-box: fill-box; transform-origin: 50% 50%;"/>
    <path d="M 318.209 169.806 L 245.951 169.806 C 241.809 169.806 238.451 173.164 238.451 177.306 C 238.451 181.448 241.809 184.806 245.951 184.806 L 274.58 184.806 L 274.58 343.5 C 274.58 347.642 277.938 351 282.08 351 C 286.222 351 289.58 347.642 289.58 343.5 L 289.58 184.806 L 318.209 184.806 C 322.351 184.806 325.709 181.448 325.709 177.306 C 325.709 173.164 322.352 169.806 318.209 169.806 Z" style="fill: rgb(255, 255, 255); stroke-miterlimit: 1; stroke-width: 5px; transform-box: fill-box; transform-origin: 50% 50%;"/>
    <path d="M 372.403 169.806 C 350.338 169.806 332.387 187.757 332.387 209.822 L 332.387 310.983 C 332.387 333.048 350.338 350.999 372.403 350.999 C 394.468 350.999 412.419 333.048 412.419 310.983 L 412.419 209.823 C 412.419 187.758 394.468 169.806 372.403 169.806 Z M 397.419 310.984 C 397.419 324.778 386.197 336 372.403 336 C 358.609 336 347.387 324.778 347.387 310.984 L 347.387 209.823 C 347.387 196.029 358.609 184.807 372.403 184.807 C 386.197 184.807 397.419 196.029 397.419 209.823 L 397.419 310.984 Z" style="fill: rgb(255, 255, 255); stroke-miterlimit: 1; stroke-width: 0px; stroke-dashoffset: -50px; transform-box: fill-box; transform-origin: 50% 50%;"/>
  </g>
</svg>